<svg width="16" height="16" viewBox="0 0 16 16" fill="none" xmlns="http://www.w3.org/2000/svg">
<path d="M8 14.8571C4.68571 14.8571 2 12.1714 2 8.85714C2 5.71429 4.4 3.14286 7.48571 2.85714L6.74286 2.11429C6.51429 1.88571 6.51429 1.54286 6.74286 1.31429C6.97143 1.08571 7.31429 1.08571 7.54286 1.31429L9.31429 3.08571C9.54286 3.31429 9.54286 3.65714 9.31429 3.88571L7.54286 5.71429C7.31429 5.94286 6.97143 5.94286 6.74286 5.71429C6.51429 5.48571 6.51429 5.14286 6.74286 4.91429L7.65714 4C5.14286 4.22857 3.14286 6.28571 3.14286 8.85714C3.14286 11.5429 5.31429 13.7143 8 13.7143C10.6857 13.7143 12.8571 11.5429 12.8571 8.85714C12.8571 8.51429 13.0857 8.28571 13.4286 8.28571C13.7714 8.28571 14 8.51429 14 8.85714C14 12.1714 11.3143 14.8571 8 14.8571Z" fill="white"/>
</svg>
